<svg width="142" height="34" viewBox="0 0 142 34" fill="none" xmlns="http://www.w3.org/2000/svg">
<path d="M41.3526 6.38183H39.8917C39.85 6.14225 39.7732 5.93001 39.6612 5.74511C39.5492 5.55761 39.4099 5.39876 39.2433 5.26855C39.0766 5.13834 38.8865 5.04069 38.6729 4.97558C38.462 4.90788 38.2341 4.87402 37.9893 4.87402C37.5545 4.87402 37.169 4.9834 36.8331 5.20215C36.4972 5.41829 36.2341 5.736 36.044 6.15527C35.8539 6.57194 35.7589 7.08105 35.7589 7.68261C35.7589 8.29459 35.8539 8.81022 36.044 9.22949C36.2367 9.64616 36.4998 9.96126 36.8331 10.1748C37.169 10.3857 37.5532 10.4912 37.9854 10.4912C38.225 10.4912 38.449 10.4599 38.6573 10.3974C38.8683 10.3323 39.0571 10.2373 39.2237 10.1123C39.393 9.9873 39.5349 9.83366 39.6495 9.65137C39.7667 9.46907 39.8474 9.26074 39.8917 9.02637L41.3526 9.03418C41.2979 9.41439 41.1795 9.77116 40.9972 10.1045C40.8175 10.4378 40.5818 10.7321 40.2901 10.9873C39.9985 11.2399 39.6573 11.4378 39.2667 11.581C38.8761 11.7217 38.4425 11.792 37.9659 11.792C37.2628 11.792 36.6352 11.6292 36.0831 11.3037C35.531 10.9782 35.0961 10.5081 34.7784 9.89355C34.4607 9.27897 34.3018 8.54199 34.3018 7.68261C34.3018 6.82064 34.462 6.08366 34.7823 5.47168C35.1026 4.85709 35.5388 4.38704 36.0909 4.06152C36.643 3.736 37.268 3.57324 37.9659 3.57324C38.4112 3.57324 38.8253 3.63574 39.2081 3.76074C39.5909 3.88574 39.9321 4.06933 40.2315 4.31152C40.531 4.5511 40.7771 4.84538 40.9698 5.19433C41.1651 5.54069 41.2927 5.93652 41.3526 6.38183ZM45.2345 11.7998C44.6485 11.7998 44.1407 11.6709 43.711 11.4131C43.2813 11.1553 42.948 10.7946 42.711 10.331C42.4767 9.86751 42.3595 9.32584 42.3595 8.70605C42.3595 8.08626 42.4767 7.54329 42.711 7.07715C42.948 6.611 43.2813 6.24902 43.711 5.99121C44.1407 5.7334 44.6485 5.60449 45.2345 5.60449C45.8204 5.60449 46.3282 5.7334 46.7579 5.99121C47.1876 6.24902 47.5196 6.611 47.754 7.07715C47.991 7.54329 48.1095 8.08626 48.1095 8.70605C48.1095 9.32584 47.991 9.86751 47.754 10.331C47.5196 10.7946 47.1876 11.1553 46.7579 11.4131C46.3282 11.6709 45.8204 11.7998 45.2345 11.7998ZM45.2423 10.667C45.56 10.667 45.8256 10.5797 46.0392 10.4053C46.2527 10.2282 46.4115 9.99121 46.5157 9.69433C46.6225 9.39746 46.6759 9.06673 46.6759 8.70215C46.6759 8.33496 46.6225 8.00293 46.5157 7.70605C46.4115 7.40657 46.2527 7.16829 46.0392 6.99121C45.8256 6.81413 45.56 6.72558 45.2423 6.72558C44.9168 6.72558 44.6459 6.81413 44.4298 6.99121C44.2162 7.16829 44.0561 7.40657 43.9493 7.70605C43.8451 8.00293 43.7931 8.33496 43.7931 8.70215C43.7931 9.06673 43.8451 9.39746 43.9493 9.69433C44.0561 9.99121 44.2162 10.2282 44.4298 10.4053C44.6459 10.5797 44.9168 10.667 45.2423 10.667ZM49.3097 11.6826V5.68261H50.6612V6.70215H50.7315C50.8565 6.3584 51.0636 6.09017 51.3526 5.89746C51.6417 5.70215 51.9867 5.60449 52.3878 5.60449C52.794 5.60449 53.1365 5.70345 53.4151 5.90137C53.6964 6.09668 53.8943 6.3636 54.0089 6.70215H54.0714C54.2042 6.36881 54.4282 6.10319 54.7433 5.90527C55.061 5.70475 55.4373 5.60449 55.8722 5.60449C56.4242 5.60449 56.8748 5.77897 57.2237 6.12793C57.5727 6.47689 57.7472 6.986 57.7472 7.65527V11.6826H56.3292V7.87402C56.3292 7.50163 56.2302 7.22949 56.0323 7.05761C55.8344 6.88314 55.5922 6.7959 55.3058 6.7959C54.9646 6.7959 54.6977 6.90267 54.505 7.11621C54.3149 7.32715 54.2198 7.60189 54.2198 7.94043V11.6826H52.8331V7.81543C52.8331 7.50553 52.7393 7.25814 52.5518 7.07324C52.367 6.88834 52.1248 6.7959 51.8253 6.7959C51.6222 6.7959 51.4373 6.84798 51.2706 6.95215C51.1039 7.05371 50.9711 7.19824 50.8722 7.38574C50.7732 7.57064 50.7237 7.78678 50.7237 8.03418V11.6826H49.3097ZM59.1817 11.6826V5.68261H60.5958V11.6826H59.1817ZM59.8927 4.83105C59.6687 4.83105 59.476 4.75683 59.3145 4.6084C59.1531 4.45735 59.0724 4.27636 59.0724 4.06543C59.0724 3.85189 59.1531 3.6709 59.3145 3.52246C59.476 3.37142 59.6687 3.2959 59.8927 3.2959C60.1192 3.2959 60.3119 3.37142 60.4708 3.52246C60.6323 3.6709 60.713 3.85189 60.713 4.06543C60.713 4.27636 60.6323 4.45735 60.4708 4.6084C60.3119 4.75683 60.1192 4.83105 59.8927 4.83105ZM63.464 8.16699V11.6826H62.0499V5.68261H63.4015V6.70215H63.4718C63.6098 6.36621 63.8298 6.09928 64.1319 5.90137C64.4366 5.70345 64.8129 5.60449 65.2608 5.60449C65.6749 5.60449 66.0356 5.69303 66.3429 5.87011C66.6528 6.0472 66.8923 6.30371 67.0616 6.63965C67.2335 6.97558 67.3181 7.38314 67.3155 7.8623V11.6826H65.9015V8.08105C65.9015 7.68001 65.7973 7.36621 65.589 7.13965C65.3832 6.91308 65.0981 6.7998 64.7335 6.7998C64.4861 6.7998 64.266 6.85449 64.0733 6.96387C63.8832 7.07064 63.7335 7.22558 63.6241 7.42871C63.5173 7.63183 63.464 7.87793 63.464 8.16699ZM71.3624 14.0576C70.8546 14.0576 70.4184 13.9886 70.0538 13.8506C69.6892 13.7151 69.3962 13.5329 69.1749 13.3037C68.9535 13.0745 68.7999 12.8206 68.714 12.542L69.9874 12.2334C70.0447 12.3506 70.128 12.4664 70.2374 12.581C70.3468 12.6982 70.4939 12.7946 70.6788 12.8701C70.8663 12.9482 71.102 12.9873 71.3858 12.9873C71.7869 12.9873 72.1189 12.8896 72.3819 12.6943C72.6449 12.5016 72.7765 12.1839 72.7765 11.7412V10.6045H72.7061C72.6332 10.7503 72.5265 10.9 72.3858 11.0537C72.2478 11.2073 72.0642 11.3362 71.8351 11.4404C71.6085 11.5446 71.3233 11.5967 70.9796 11.5967C70.5186 11.5967 70.1007 11.4886 69.7257 11.2724C69.3533 11.0537 69.0564 10.7282 68.8351 10.2959C68.6163 9.861 68.5069 9.31673 68.5069 8.66308C68.5069 8.00423 68.6163 7.44824 68.8351 6.99511C69.0564 6.53939 69.3546 6.19433 69.7296 5.95996C70.1046 5.72298 70.5226 5.60449 70.9835 5.60449C71.3351 5.60449 71.6241 5.66439 71.8507 5.78418C72.0798 5.90136 72.2621 6.04329 72.3976 6.20996C72.533 6.37402 72.6358 6.52897 72.7061 6.6748H72.7843V5.68261H74.1788V11.7803C74.1788 12.2933 74.0564 12.7178 73.8116 13.0537C73.5668 13.3896 73.2322 13.6409 72.8077 13.8076C72.3832 13.9743 71.9015 14.0576 71.3624 14.0576ZM71.3741 10.4873C71.6736 10.4873 71.9288 10.4144 72.1397 10.2685C72.3507 10.1227 72.5108 9.91308 72.6202 9.63965C72.7296 9.36621 72.7843 9.03808 72.7843 8.65527C72.7843 8.27767 72.7296 7.94694 72.6202 7.66308C72.5134 7.37923 72.3546 7.15918 72.1436 7.00293C71.9353 6.84407 71.6788 6.76465 71.3741 6.76465C71.059 6.76465 70.796 6.84668 70.5851 7.01074C70.3741 7.1748 70.2153 7.40006 70.1085 7.68652C70.0017 7.97038 69.9483 8.29329 69.9483 8.65527C69.9483 9.02246 70.0017 9.34407 70.1085 9.62012C70.2179 9.89355 70.378 10.1071 70.589 10.2607C70.8025 10.4118 71.0642 10.4873 71.3741 10.4873ZM82.7667 5.88183C82.7302 5.54069 82.5766 5.27506 82.3058 5.08496C82.0375 4.89485 81.6886 4.7998 81.2589 4.7998C80.9568 4.7998 80.6977 4.84538 80.4815 4.93652C80.2654 5.02767 80.1 5.15136 79.9854 5.30761C79.8709 5.46387 79.8123 5.64225 79.8097 5.84277C79.8097 6.00944 79.8474 6.15397 79.9229 6.27637C80.0011 6.39876 80.1065 6.50293 80.2393 6.58887C80.3722 6.6722 80.5193 6.74251 80.6808 6.7998C80.8422 6.85709 81.005 6.90527 81.169 6.94433L81.919 7.13183C82.2211 7.20215 82.5115 7.2972 82.7901 7.41699C83.0714 7.53678 83.3227 7.68782 83.544 7.87012C83.768 8.05241 83.9451 8.27246 84.0753 8.53027C84.2055 8.78808 84.2706 9.09017 84.2706 9.43652C84.2706 9.90527 84.1508 10.318 83.9112 10.6748C83.6716 11.0289 83.3253 11.3063 82.8722 11.5068C82.4216 11.7047 81.8761 11.8037 81.2354 11.8037C80.613 11.8037 80.0727 11.7073 79.6143 11.5146C79.1586 11.3219 78.8018 11.0407 78.544 10.6709C78.2888 10.3011 78.1508 9.85058 78.13 9.31933H79.5558C79.5766 9.59798 79.6625 9.82975 79.8136 10.0146C79.9646 10.1995 80.1612 10.3375 80.4034 10.4287C80.6482 10.5198 80.9216 10.5654 81.2237 10.5654C81.5388 10.5654 81.8149 10.5185 82.0518 10.4248C82.2914 10.3284 82.4789 10.1956 82.6143 10.0263C82.7498 9.85449 82.8188 9.65397 82.8214 9.4248C82.8188 9.21647 82.7576 9.04459 82.6378 8.90918C82.518 8.77116 82.35 8.65657 82.1339 8.56543C81.9203 8.47168 81.6703 8.38834 81.3839 8.31543L80.4737 8.08105C79.8149 7.91178 79.294 7.65527 78.9112 7.31152C78.531 6.96517 78.3409 6.50553 78.3409 5.93261C78.3409 5.46126 78.4685 5.0485 78.7237 4.69433C78.9815 4.34017 79.3318 4.06543 79.7745 3.87011C80.2172 3.6722 80.7185 3.57324 81.2784 3.57324C81.8461 3.57324 82.3435 3.6722 82.7706 3.87011C83.2003 4.06543 83.5375 4.33756 83.7823 4.68652C84.0271 5.03288 84.1534 5.43131 84.1612 5.88183H82.7667ZM88.1173 11.7998C87.5313 11.7998 87.0235 11.6709 86.5938 11.4131C86.1642 11.1553 85.8308 10.7946 85.5938 10.331C85.3595 9.86751 85.2423 9.32584 85.2423 8.70605C85.2423 8.08626 85.3595 7.54329 85.5938 7.07715C85.8308 6.611 86.1642 6.24902 86.5938 5.99121C87.0235 5.7334 87.5313 5.60449 88.1173 5.60449C88.7032 5.60449 89.211 5.7334 89.6407 5.99121C90.0704 6.24902 90.4024 6.611 90.6368 7.07715C90.8738 7.54329 90.9923 8.08626 90.9923 8.70605C90.9923 9.32584 90.8738 9.86751 90.6368 10.331C90.4024 10.7946 90.0704 11.1553 89.6407 11.4131C89.211 11.6709 88.7032 11.7998 88.1173 11.7998ZM88.1251 10.667C88.4428 10.667 88.7084 10.5797 88.922 10.4053C89.1355 10.2282 89.2944 9.99121 89.3985 9.69433C89.5053 9.39746 89.5587 9.06673 89.5587 8.70215C89.5587 8.33496 89.5053 8.00293 89.3985 7.70605C89.2944 7.40657 89.1355 7.16829 88.922 6.99121C88.7084 6.81413 88.4428 6.72558 88.1251 6.72558C87.7996 6.72558 87.5287 6.81413 87.3126 6.99121C87.099 7.16829 86.9389 7.40657 86.8321 7.70605C86.728 8.00293 86.6759 8.33496 86.6759 8.70215C86.6759 9.06673 86.728 9.39746 86.8321 9.69433C86.9389 9.99121 87.099 10.2282 87.3126 10.4053C87.5287 10.5797 87.7996 10.667 88.1251 10.667ZM94.8097 11.7998C94.2237 11.7998 93.7159 11.6709 93.2862 11.4131C92.8565 11.1553 92.5232 10.7946 92.2862 10.331C92.0518 9.86751 91.9347 9.32584 91.9347 8.70605C91.9347 8.08626 92.0518 7.54329 92.2862 7.07715C92.5232 6.611 92.8565 6.24902 93.2862 5.99121C93.7159 5.7334 94.2237 5.60449 94.8097 5.60449C95.3956 5.60449 95.9034 5.7334 96.3331 5.99121C96.7628 6.24902 97.0948 6.611 97.3292 7.07715C97.5662 7.54329 97.6847 8.08626 97.6847 8.70605C97.6847 9.32584 97.5662 9.86751 97.3292 10.331C97.0948 10.7946 96.7628 11.1553 96.3331 11.4131C95.9034 11.6709 95.3956 11.7998 94.8097 11.7998ZM94.8175 10.667C95.1352 10.667 95.4008 10.5797 95.6143 10.4053C95.8279 10.2282 95.9867 9.99121 96.0909 9.69433C96.1977 9.39746 96.2511 9.06673 96.2511 8.70215C96.2511 8.33496 96.1977 8.00293 96.0909 7.70605C95.9867 7.40657 95.8279 7.16829 95.6143 6.99121C95.4008 6.81413 95.1352 6.72558 94.8175 6.72558C94.492 6.72558 94.2211 6.81413 94.005 6.99121C93.7914 7.16829 93.6313 7.40657 93.5245 7.70605C93.4203 8.00293 93.3683 8.33496 93.3683 8.70215C93.3683 9.06673 93.4203 9.39746 93.5245 9.69433C93.6313 9.99121 93.7914 10.2282 94.005 10.4053C94.2211 10.5797 94.492 10.667 94.8175 10.667ZM100.299 8.16699V11.6826H98.8849V5.68261H100.236V6.70215H100.307C100.444 6.36621 100.665 6.09928 100.967 5.90137C101.271 5.70345 101.648 5.60449 102.095 5.60449C102.51 5.60449 102.87 5.69303 103.178 5.87011C103.487 6.0472 103.727 6.30371 103.896 6.63965C104.068 6.97558 104.153 7.38314 104.15 7.8623V11.6826H102.736V8.08105C102.736 7.68001 102.632 7.36621 102.424 7.13965C102.218 6.91308 101.933 6.7998 101.568 6.7998C101.321 6.7998 101.101 6.85449 100.908 6.96387C100.718 7.07064 100.568 7.22558 100.459 7.42871C100.352 7.63183 100.299 7.87793 100.299 8.16699ZM110.933 11.7998C110.347 11.7998 109.84 11.6709 109.41 11.4131C108.98 11.1553 108.647 10.7946 108.41 10.331C108.176 9.86751 108.058 9.32584 108.058 8.70605C108.058 8.08626 108.176 7.54329 108.41 7.07715C108.647 6.611 108.98 6.24902 109.41 5.99121C109.84 5.7334 110.347 5.60449 110.933 5.60449C111.519 5.60449 112.027 5.7334 112.457 5.99121C112.887 6.24902 113.219 6.611 113.453 7.07715C113.69 7.54329 113.808 8.08626 113.808 8.70605C113.808 9.32584 113.69 9.86751 113.453 10.331C113.219 10.7946 112.887 11.1553 112.457 11.4131C112.027 11.6709 111.519 11.7998 110.933 11.7998ZM110.941 10.667C111.259 10.667 111.525 10.5797 111.738 10.4053C111.952 10.2282 112.11 9.99121 112.215 9.69433C112.321 9.39746 112.375 9.06673 112.375 8.70215C112.375 8.33496 112.321 8.00293 112.215 7.70605C112.11 7.40657 111.952 7.16829 111.738 6.99121C111.525 6.81413 111.259 6.72558 110.941 6.72558C110.616 6.72558 110.345 6.81413 110.129 6.99121C109.915 7.16829 109.755 7.40657 109.648 7.70605C109.544 8.00293 109.492 8.33496 109.492 8.70215C109.492 9.06673 109.544 9.39746 109.648 9.69433C109.755 9.99121 109.915 10.2282 110.129 10.4053C110.345 10.5797 110.616 10.667 110.941 10.667ZM116.423 8.16699V11.6826H115.009V5.68261H116.36V6.70215H116.43C116.568 6.36621 116.789 6.09928 117.091 5.90137C117.395 5.70345 117.772 5.60449 118.22 5.60449C118.634 5.60449 118.994 5.69303 119.302 5.87011C119.611 6.0472 119.851 6.30371 120.02 6.63965C120.192 6.97558 120.277 7.38314 120.274 7.8623V11.6826H118.86V8.08105C118.86 7.68001 118.756 7.36621 118.548 7.13965C118.342 6.91308 118.057 6.7998 117.692 6.7998C117.445 6.7998 117.225 6.85449 117.032 6.96387C116.842 7.07064 116.692 7.22558 116.583 7.42871C116.476 7.63183 116.423 7.87793 116.423 8.16699Z" fill="#0D0D0D"/>
<path d="M42.7169 25.9151H37.3067L36.0075 29.7514H33.7158L38.8404 15.5579H41.2212L46.3457 29.7514H44.015L42.7169 25.9151ZM37.867 24.1448H42.1555L40.0414 17.9187H39.9822L37.867 24.1448ZM57.4127 24.5779C57.4127 27.7936 55.6915 29.8597 53.0942 29.8597C52.4362 29.8941 51.7818 29.7425 51.206 29.4224C50.6301 29.1022 50.1561 28.6263 49.8382 28.0492H49.789V33.1748H47.6649V19.4032H49.721V21.1244H49.7601C50.0927 20.5501 50.5747 20.0767 51.1549 19.7545C51.7351 19.4324 52.3918 19.2736 53.0551 19.295C55.6814 19.295 57.4127 21.3712 57.4127 24.5779ZM55.2294 24.5779C55.2294 22.4829 54.1468 21.1055 52.4948 21.1055C50.8718 21.1055 49.7802 22.5118 49.7802 24.5778C49.7802 26.663 50.8718 28.0594 52.4948 28.0594C54.1468 28.0594 55.2294 26.6921 55.2294 24.5779ZM68.8023 24.5779C68.8023 27.7936 67.0812 29.8597 64.4838 29.8597C63.8258 29.8941 63.1715 29.7425 62.5957 29.4223C62.0198 29.1021 61.5458 28.6263 61.2279 28.0492H61.1787V33.1748H59.0546V19.4032H61.1106V21.1244H61.1497C61.4823 20.5501 61.9643 20.0767 62.5445 19.7545C63.1247 19.4324 63.7814 19.2736 64.4447 19.295C67.0712 19.295 68.8023 21.3712 68.8023 24.5779ZM66.6191 24.5779C66.6191 22.4829 65.5364 21.1055 63.8844 21.1055C62.2614 21.1055 61.1698 22.5118 61.1698 24.5778C61.1698 26.663 62.2614 28.0594 63.8844 28.0594C65.5364 28.0594 66.6191 26.6921 66.6191 24.5779ZM76.33 25.7968C76.4874 27.2043 77.8548 28.1285 79.7232 28.1285C81.5136 28.1285 82.8017 27.2043 82.8017 25.9351C82.8017 24.8334 82.0248 24.1738 80.1854 23.7217L78.3458 23.2786C75.7395 22.649 74.5296 21.4302 74.5296 19.4522C74.5296 17.0033 76.6638 15.3213 79.6942 15.3213C82.6933 15.3213 84.7494 17.0033 84.8186 19.4522H82.6744C82.546 18.0359 81.3751 17.1808 79.664 17.1808C77.9529 17.1808 76.7821 18.0459 76.7821 19.3049C76.7821 20.3084 77.5299 20.8989 79.3593 21.3508L80.9231 21.7349C83.8352 22.4235 85.0453 23.5934 85.0453 25.6694C85.0453 28.3249 82.93 29.988 79.5658 29.988C76.418 29.988 74.2929 28.3639 74.1556 25.7967L76.33 25.7968ZM89.6294 16.9544V19.4032H91.5973V21.0853H89.6294V26.7902C89.6294 27.6765 90.0234 28.0894 90.8885 28.0894C91.1221 28.0853 91.3554 28.0689 91.5872 28.0403V29.7125C91.1983 29.7851 90.803 29.8179 90.4075 29.8105C88.3124 29.8105 87.4952 29.0237 87.4952 27.0167V21.0853H85.9906V19.4032H87.4952V16.9544H89.6294ZM92.737 24.5779C92.737 21.3219 94.6546 19.276 97.6449 19.276C100.645 19.276 102.554 21.3219 102.554 24.5779C102.554 27.8428 100.655 29.8798 97.6448 29.8798C94.6356 29.8798 92.737 27.8428 92.737 24.5779ZM100.39 24.5779C100.39 22.3444 99.366 21.0261 97.6448 21.0261C95.9237 21.0261 94.9012 22.3544 94.9012 24.5779C94.9012 26.8204 95.9237 28.1285 97.6448 28.1285C99.366 28.1285 100.39 26.8204 100.39 24.5779ZM104.305 19.4032H106.331V21.1645H106.38C106.517 20.6144 106.839 20.1283 107.293 19.7878C107.746 19.4473 108.303 19.2733 108.869 19.295C109.114 19.2941 109.358 19.3207 109.597 19.3742V21.361C109.288 21.2666 108.966 21.2232 108.643 21.2327C108.334 21.2201 108.026 21.2745 107.741 21.3921C107.455 21.5097 107.198 21.6877 106.988 21.9139C106.778 22.1401 106.619 22.4091 106.523 22.7025C106.426 22.9959 106.394 23.3066 106.429 23.6135V29.7514H104.305V19.4032ZM119.39 26.712C119.105 28.5906 117.275 29.8798 114.935 29.8798C111.924 29.8798 110.056 27.8629 110.056 24.627C110.056 21.3811 111.934 19.276 114.845 19.276C117.708 19.276 119.509 21.2427 119.509 24.3803V25.1081H112.2V25.2364C112.166 25.6173 112.214 26.0009 112.34 26.3619C112.466 26.7229 112.667 27.053 112.93 27.3302C113.193 27.6075 113.513 27.8255 113.867 27.9699C114.221 28.1143 114.601 28.1817 114.984 28.1676C115.486 28.2147 115.989 28.0984 116.42 27.8361C116.85 27.5739 117.185 27.1796 117.373 26.712H119.39ZM112.21 23.6236H117.383C117.402 23.2811 117.351 22.9384 117.231 22.617C117.111 22.2956 116.926 22.0024 116.688 21.7557C116.45 21.5091 116.163 21.3144 115.846 21.1839C115.529 21.0533 115.188 20.9897 114.845 20.9971C114.499 20.995 114.156 21.0615 113.836 21.1927C113.516 21.3238 113.225 21.5171 112.98 21.7612C112.735 22.0054 112.541 22.2957 112.409 22.6154C112.277 22.935 112.209 23.2776 112.21 23.6236Z" fill="#0D0D0D"/>
<path d="M14 31C21.732 31 28 24.732 28 17C28 9.268 21.732 3 14 3C6.268 3 0 9.268 0 17C0 24.732 6.268 31 14 31Z" fill="#0D0D0D"/>
<path d="M16.446 9.65411C16.5916 9.40052 16.6307 9.09963 16.555 8.81723C16.4793 8.53483 16.2949 8.29389 16.042 8.14711C15.917 8.0749 15.7789 8.02811 15.6357 8.00944C15.4925 7.99077 15.347 8.00058 15.2076 8.03831C15.0682 8.07604 14.9377 8.14094 14.8235 8.22929C14.7092 8.31763 14.6136 8.42768 14.542 8.55311L14.014 9.47411L13.487 8.55411C13.4156 8.4286 13.32 8.31845 13.2058 8.23001C13.0916 8.14156 12.961 8.07656 12.8217 8.03874C12.6823 8.00091 12.5368 7.99102 12.3935 8.00962C12.2503 8.02821 12.1121 8.07494 11.987 8.14711C11.7342 8.29389 11.5497 8.53483 11.474 8.81723C11.3983 9.09963 11.4375 9.40052 11.583 9.65411L12.747 11.6861L9.06403 18.1151H6.09703C5.95249 18.1154 5.80942 18.1441 5.676 18.1997C5.54258 18.2553 5.42142 18.3366 5.31944 18.4391C5.21747 18.5415 5.13669 18.663 5.08171 18.7967C5.02673 18.9304 4.99864 19.0736 4.99903 19.2181C4.9985 19.3627 5.0265 19.506 5.08142 19.6398C5.13634 19.7736 5.2171 19.8953 5.31909 19.9978C5.42107 20.1003 5.54228 20.1818 5.67577 20.2374C5.80926 20.2931 5.95241 20.3218 6.09703 20.3221H16.431C16.522 20.0821 16.617 19.6721 16.516 19.2951C16.363 18.7281 15.799 18.1151 14.853 18.1151H11.599L16.446 9.65411ZM9.63503 21.5421C9.44803 21.3331 9.02803 20.9991 8.66003 20.8891C8.09903 20.7211 7.67303 20.8261 7.45803 20.9191L6.64003 22.3461C6.49451 22.5997 6.45532 22.9006 6.53102 23.183C6.60673 23.4654 6.79118 23.7063 7.04403 23.8531C7.16905 23.9255 7.30715 23.9723 7.45037 23.9911C7.59359 24.0098 7.73911 24 7.87853 23.9623C8.01796 23.9246 8.14854 23.8596 8.26276 23.7712C8.37697 23.6828 8.47257 23.5726 8.54403 23.4471L9.63503 21.5421Z" fill="white"/>
<path d="M20.2297 20.3221H21.9017C22.0463 20.3218 22.1895 20.293 22.3229 20.2374C22.4564 20.1817 22.5776 20.1003 22.6796 19.9978C22.7816 19.8952 22.8624 19.7736 22.9173 19.6398C22.9722 19.506 23.0002 19.3627 22.9997 19.2181C23.0001 19.0735 22.972 18.9303 22.917 18.7967C22.862 18.663 22.7812 18.5415 22.6793 18.439C22.5773 18.3366 22.4561 18.2552 22.3227 18.1997C22.1893 18.1441 22.0462 18.1153 21.9017 18.1151H18.9647L15.6567 12.3411C15.4117 12.5761 14.9407 13.1751 14.8687 13.8551C14.7777 14.7281 14.9147 15.4641 15.3267 16.1851L19.4847 23.4471C19.7877 23.9751 20.4587 24.1571 20.9847 23.8531C21.5107 23.5491 21.6917 22.8741 21.3887 22.3461L20.2297 20.3221Z" fill="white" fill-opacity="0.7"/>
</svg>
