<svg width="142" height="34" viewBox="0 0 142 34" fill="none" xmlns="http://www.w3.org/2000/svg">
<path d="M17.8899 17.732C17.9024 16.7637 18.1596 15.8143 18.6376 14.9721C19.1156 14.13 19.7988 13.4224 20.6237 12.9152C20.0997 12.1667 19.4083 11.5508 18.6046 11.1162C17.8008 10.6817 16.9068 10.4406 15.9936 10.412C14.0454 10.2075 12.1568 11.5777 11.164 11.5777C10.1521 11.5777 8.62367 10.4323 6.97781 10.4662C5.91319 10.5005 4.87562 10.8101 3.96621 11.3647C3.0568 11.9193 2.30656 12.7 1.78859 13.6307C-0.455091 17.5154 1.2185 23.2244 3.36786 26.3644C4.44317 27.902 5.69982 29.6194 7.34429 29.5585C8.95338 29.4918 9.55432 28.5324 11.4968 28.5324C13.4213 28.5324 13.9851 29.5585 15.6628 29.5198C17.3896 29.4918 18.4774 27.9754 19.515 26.4233C20.2876 25.3277 20.8821 24.1169 21.2765 22.8356C20.2734 22.4113 19.4173 21.7011 18.8151 20.7935C18.2128 19.886 17.8911 18.8212 17.8899 17.732ZM14.7209 8.34688C15.6624 7.21668 16.1262 5.76401 16.0139 4.29736C14.5755 4.44843 13.2469 5.13586 12.2927 6.2227C11.8262 6.75365 11.4688 7.37134 11.2412 8.04046C11.0135 8.70959 10.92 9.41703 10.9659 10.1223C11.6853 10.1297 12.3971 9.97381 13.0475 9.66627C13.6979 9.35873 14.2701 8.90761 14.7209 8.34688Z" fill="#0D0D0D"/>
<path d="M40.9131 6.38183H39.4522C39.4105 6.14225 39.3337 5.93001 39.2217 5.74511C39.1097 5.55761 38.9704 5.39876 38.8038 5.26855C38.6371 5.13834 38.447 5.04069 38.2334 4.97558C38.0225 4.90788 37.7946 4.87402 37.5498 4.87402C37.115 4.87402 36.7295 4.9834 36.3936 5.20215C36.0577 5.41829 35.7946 5.736 35.6045 6.15527C35.4144 6.57194 35.3194 7.08105 35.3194 7.68261C35.3194 8.29459 35.4144 8.81022 35.6045 9.22949C35.7972 9.64616 36.0603 9.96126 36.3936 10.1748C36.7295 10.3857 37.1137 10.4912 37.5459 10.4912C37.7855 10.4912 38.0095 10.4599 38.2178 10.3974C38.4288 10.3323 38.6176 10.2373 38.7842 10.1123C38.9535 9.9873 39.0954 9.83366 39.21 9.65137C39.3272 9.46907 39.4079 9.26074 39.4522 9.02637L40.9131 9.03418C40.8584 9.41439 40.74 9.77116 40.5577 10.1045C40.378 10.4378 40.1423 10.7321 39.8506 10.9873C39.559 11.2399 39.2178 11.4378 38.8272 11.581C38.4366 11.7217 38.003 11.792 37.5264 11.792C36.8233 11.792 36.1957 11.6292 35.6436 11.3037C35.0915 10.9782 34.6566 10.5081 34.3389 9.89355C34.0212 9.27897 33.8623 8.54199 33.8623 7.68261C33.8623 6.82064 34.0225 6.08366 34.3428 5.47168C34.6631 4.85709 35.0993 4.38704 35.6514 4.06152C36.2035 3.736 36.8285 3.57324 37.5264 3.57324C37.9717 3.57324 38.3858 3.63574 38.7686 3.76074C39.1514 3.88574 39.4926 4.06933 39.792 4.31152C40.0915 4.5511 40.3376 4.84538 40.5303 5.19433C40.7256 5.54069 40.8532 5.93652 40.9131 6.38183ZM44.795 11.7998C44.209 11.7998 43.7012 11.6709 43.2715 11.4131C42.8418 11.1553 42.5085 10.7946 42.2715 10.331C42.0372 9.86751 41.92 9.32584 41.92 8.70605C41.92 8.08626 42.0372 7.54329 42.2715 7.07715C42.5085 6.611 42.8418 6.24902 43.2715 5.99121C43.7012 5.7334 44.209 5.60449 44.795 5.60449C45.3809 5.60449 45.8887 5.7334 46.3184 5.99121C46.7481 6.24902 47.0801 6.611 47.3145 7.07715C47.5515 7.54329 47.67 8.08626 47.67 8.70605C47.67 9.32584 47.5515 9.86751 47.3145 10.331C47.0801 10.7946 46.7481 11.1553 46.3184 11.4131C45.8887 11.6709 45.3809 11.7998 44.795 11.7998ZM44.8028 10.667C45.1205 10.667 45.3861 10.5797 45.5997 10.4053C45.8132 10.2282 45.972 9.99121 46.0762 9.69433C46.183 9.39746 46.2364 9.06673 46.2364 8.70215C46.2364 8.33496 46.183 8.00293 46.0762 7.70605C45.972 7.40657 45.8132 7.16829 45.5997 6.99121C45.3861 6.81413 45.1205 6.72558 44.8028 6.72558C44.4773 6.72558 44.2064 6.81413 43.9903 6.99121C43.7767 7.16829 43.6166 7.40657 43.5098 7.70605C43.4056 8.00293 43.3536 8.33496 43.3536 8.70215C43.3536 9.06673 43.4056 9.39746 43.5098 9.69433C43.6166 9.99121 43.7767 10.2282 43.9903 10.4053C44.2064 10.5797 44.4773 10.667 44.8028 10.667ZM48.8702 11.6826V5.68261H50.2217V6.70215H50.292C50.417 6.3584 50.6241 6.09017 50.9131 5.89746C51.2022 5.70215 51.5472 5.60449 51.9483 5.60449C52.3545 5.60449 52.697 5.70345 52.9756 5.90137C53.2569 6.09668 53.4548 6.3636 53.5694 6.70215H53.6319C53.7647 6.36881 53.9887 6.10319 54.3038 5.90527C54.6215 5.70475 54.9978 5.60449 55.4327 5.60449C55.9847 5.60449 56.4353 5.77897 56.7842 6.12793C57.1332 6.47689 57.3077 6.986 57.3077 7.65527V11.6826H55.8897V7.87402C55.8897 7.50163 55.7907 7.22949 55.5928 7.05761C55.3949 6.88314 55.1527 6.7959 54.8663 6.7959C54.5251 6.7959 54.2582 6.90267 54.0655 7.11621C53.8754 7.32715 53.7803 7.60189 53.7803 7.94043V11.6826H52.3936V7.81543C52.3936 7.50553 52.2998 7.25814 52.1123 7.07324C51.9275 6.88834 51.6853 6.7959 51.3858 6.7959C51.1827 6.7959 50.9978 6.84798 50.8311 6.95215C50.6644 7.05371 50.5316 7.19824 50.4327 7.38574C50.3337 7.57064 50.2842 7.78678 50.2842 8.03418V11.6826H48.8702ZM58.7422 11.6826V5.68261H60.1563V11.6826H58.7422ZM59.4532 4.83105C59.2292 4.83105 59.0365 4.75683 58.875 4.6084C58.7136 4.45735 58.6329 4.27636 58.6329 4.06543C58.6329 3.85189 58.7136 3.6709 58.875 3.52246C59.0365 3.37142 59.2292 3.2959 59.4532 3.2959C59.6797 3.2959 59.8724 3.37142 60.0313 3.52246C60.1928 3.6709 60.2735 3.85189 60.2735 4.06543C60.2735 4.27636 60.1928 4.45735 60.0313 4.6084C59.8724 4.75683 59.6797 4.83105 59.4532 4.83105ZM63.0245 8.16699V11.6826H61.6104V5.68261H62.962V6.70215H63.0323C63.1703 6.36621 63.3903 6.09928 63.6924 5.90137C63.9971 5.70345 64.3734 5.60449 64.8213 5.60449C65.2354 5.60449 65.5961 5.69303 65.9034 5.87011C66.2133 6.0472 66.4528 6.30371 66.6221 6.63965C66.794 6.97558 66.8786 7.38314 66.876 7.8623V11.6826H65.462V8.08105C65.462 7.68001 65.3578 7.36621 65.1495 7.13965C64.9437 6.91308 64.6586 6.7998 64.294 6.7998C64.0466 6.7998 63.8265 6.85449 63.6338 6.96387C63.4437 7.07064 63.294 7.22558 63.1846 7.42871C63.0778 7.63183 63.0245 7.87793 63.0245 8.16699ZM70.9229 14.0576C70.4151 14.0576 69.9789 13.9886 69.6143 13.8506C69.2497 13.7151 68.9567 13.5329 68.7354 13.3037C68.514 13.0745 68.3604 12.8206 68.2745 12.542L69.5479 12.2334C69.6052 12.3506 69.6885 12.4664 69.7979 12.581C69.9073 12.6982 70.0544 12.7946 70.2393 12.8701C70.4268 12.9482 70.6625 12.9873 70.9463 12.9873C71.3474 12.9873 71.6794 12.8896 71.9424 12.6943C72.2054 12.5016 72.337 12.1839 72.337 11.7412V10.6045H72.2666C72.1937 10.7503 72.087 10.9 71.9463 11.0537C71.8083 11.2073 71.6247 11.3362 71.3956 11.4404C71.169 11.5446 70.8838 11.5967 70.5401 11.5967C70.0791 11.5967 69.6612 11.4886 69.2862 11.2724C68.9138 11.0537 68.6169 10.7282 68.3956 10.2959C68.1768 9.861 68.0674 9.31673 68.0674 8.66308C68.0674 8.00423 68.1768 7.44824 68.3956 6.99511C68.6169 6.53939 68.9151 6.19433 69.2901 5.95996C69.6651 5.72298 70.0831 5.60449 70.544 5.60449C70.8956 5.60449 71.1846 5.66439 71.4112 5.78418C71.6403 5.90136 71.8226 6.04329 71.9581 6.20996C72.0935 6.37402 72.1963 6.52897 72.2666 6.6748H72.3448V5.68261H73.7393V11.7803C73.7393 12.2933 73.6169 12.7178 73.3721 13.0537C73.1273 13.3896 72.7927 13.6409 72.3682 13.8076C71.9437 13.9743 71.462 14.0576 70.9229 14.0576ZM70.9346 10.4873C71.2341 10.4873 71.4893 10.4144 71.7002 10.2685C71.9112 10.1227 72.0713 9.91308 72.1807 9.63965C72.2901 9.36621 72.3448 9.03808 72.3448 8.65527C72.3448 8.27767 72.2901 7.94694 72.1807 7.66308C72.0739 7.37923 71.9151 7.15918 71.7041 7.00293C71.4958 6.84407 71.2393 6.76465 70.9346 6.76465C70.6195 6.76465 70.3565 6.84668 70.1456 7.01074C69.9346 7.1748 69.7758 7.40006 69.669 7.68652C69.5622 7.97038 69.5088 8.29329 69.5088 8.65527C69.5088 9.02246 69.5622 9.34407 69.669 9.62012C69.7784 9.89355 69.9385 10.1071 70.1495 10.2607C70.363 10.4118 70.6247 10.4873 70.9346 10.4873ZM82.3272 5.88183C82.2907 5.54069 82.1371 5.27506 81.8663 5.08496C81.598 4.89485 81.2491 4.7998 80.8194 4.7998C80.5173 4.7998 80.2582 4.84538 80.042 4.93652C79.8259 5.02767 79.6605 5.15136 79.5459 5.30761C79.4314 5.46387 79.3728 5.64225 79.3702 5.84277C79.3702 6.00944 79.4079 6.15397 79.4834 6.27637C79.5616 6.39876 79.667 6.50293 79.7998 6.58887C79.9327 6.6722 80.0798 6.74251 80.2413 6.7998C80.4027 6.85709 80.5655 6.90527 80.7295 6.94433L81.4795 7.13183C81.7816 7.20215 82.072 7.2972 82.3506 7.41699C82.6319 7.53678 82.8832 7.68782 83.1045 7.87012C83.3285 8.05241 83.5056 8.27246 83.6358 8.53027C83.766 8.78808 83.8311 9.09017 83.8311 9.43652C83.8311 9.90527 83.7113 10.318 83.4717 10.6748C83.2321 11.0289 82.8858 11.3063 82.4327 11.5068C81.9821 11.7047 81.4366 11.8037 80.7959 11.8037C80.1735 11.8037 79.6332 11.7073 79.1748 11.5146C78.7191 11.3219 78.3623 11.0407 78.1045 10.6709C77.8493 10.3011 77.7113 9.85058 77.6905 9.31933H79.1163C79.1371 9.59798 79.223 9.82975 79.3741 10.0146C79.5251 10.1995 79.7217 10.3375 79.9639 10.4287C80.2087 10.5198 80.4821 10.5654 80.7842 10.5654C81.0993 10.5654 81.3754 10.5185 81.6123 10.4248C81.8519 10.3284 82.0394 10.1956 82.1748 10.0263C82.3103 9.85449 82.3793 9.65397 82.3819 9.4248C82.3793 9.21647 82.3181 9.04459 82.1983 8.90918C82.0785 8.77116 81.9105 8.65657 81.6944 8.56543C81.4808 8.47168 81.2308 8.38834 80.9444 8.31543L80.0342 8.08105C79.3754 7.91178 78.8545 7.65527 78.4717 7.31152C78.0915 6.96517 77.9014 6.50553 77.9014 5.93261C77.9014 5.46126 78.029 5.0485 78.2842 4.69433C78.542 4.34017 78.8923 4.06543 79.335 3.87011C79.7777 3.6722 80.279 3.57324 80.8389 3.57324C81.4066 3.57324 81.904 3.6722 82.3311 3.87011C82.7608 4.06543 83.098 4.33756 83.3428 4.68652C83.5876 5.03288 83.7139 5.43131 83.7217 5.88183H82.3272ZM87.6778 11.7998C87.0918 11.7998 86.584 11.6709 86.1543 11.4131C85.7247 11.1553 85.3913 10.7946 85.1543 10.331C84.92 9.86751 84.8028 9.32584 84.8028 8.70605C84.8028 8.08626 84.92 7.54329 85.1543 7.07715C85.3913 6.611 85.7247 6.24902 86.1543 5.99121C86.584 5.7334 87.0918 5.60449 87.6778 5.60449C88.2637 5.60449 88.7715 5.7334 89.2012 5.99121C89.6309 6.24902 89.9629 6.611 90.1973 7.07715C90.4343 7.54329 90.5528 8.08626 90.5528 8.70605C90.5528 9.32584 90.4343 9.86751 90.1973 10.331C89.9629 10.7946 89.6309 11.1553 89.2012 11.4131C88.7715 11.6709 88.2637 11.7998 87.6778 11.7998ZM87.6856 10.667C88.0033 10.667 88.2689 10.5797 88.4825 10.4053C88.696 10.2282 88.8549 9.99121 88.959 9.69433C89.0658 9.39746 89.1192 9.06673 89.1192 8.70215C89.1192 8.33496 89.0658 8.00293 88.959 7.70605C88.8549 7.40657 88.696 7.16829 88.4825 6.99121C88.2689 6.81413 88.0033 6.72558 87.6856 6.72558C87.3601 6.72558 87.0892 6.81413 86.8731 6.99121C86.6595 7.16829 86.4994 7.40657 86.3926 7.70605C86.2885 8.00293 86.2364 8.33496 86.2364 8.70215C86.2364 9.06673 86.2885 9.39746 86.3926 9.69433C86.4994 9.99121 86.6595 10.2282 86.8731 10.4053C87.0892 10.5797 87.3601 10.667 87.6856 10.667ZM94.3702 11.7998C93.7842 11.7998 93.2764 11.6709 92.8467 11.4131C92.417 11.1553 92.0837 10.7946 91.8467 10.331C91.6123 9.86751 91.4952 9.32584 91.4952 8.70605C91.4952 8.08626 91.6123 7.54329 91.8467 7.07715C92.0837 6.611 92.417 6.24902 92.8467 5.99121C93.2764 5.7334 93.7842 5.60449 94.3702 5.60449C94.9561 5.60449 95.4639 5.7334 95.8936 5.99121C96.3233 6.24902 96.6553 6.611 96.8897 7.07715C97.1267 7.54329 97.2452 8.08626 97.2452 8.70605C97.2452 9.32584 97.1267 9.86751 96.8897 10.331C96.6553 10.7946 96.3233 11.1553 95.8936 11.4131C95.4639 11.6709 94.9561 11.7998 94.3702 11.7998ZM94.378 10.667C94.6957 10.667 94.9613 10.5797 95.1748 10.4053C95.3884 10.2282 95.5472 9.99121 95.6514 9.69433C95.7582 9.39746 95.8116 9.06673 95.8116 8.70215C95.8116 8.33496 95.7582 8.00293 95.6514 7.70605C95.5472 7.40657 95.3884 7.16829 95.1748 6.99121C94.9613 6.81413 94.6957 6.72558 94.378 6.72558C94.0525 6.72558 93.7816 6.81413 93.5655 6.99121C93.3519 7.16829 93.1918 7.40657 93.085 7.70605C92.9808 8.00293 92.9288 8.33496 92.9288 8.70215C92.9288 9.06673 92.9808 9.39746 93.085 9.69433C93.1918 9.99121 93.3519 10.2282 93.5655 10.4053C93.7816 10.5797 94.0525 10.667 94.378 10.667ZM99.8594 8.16699V11.6826H98.4454V5.68261H99.7969V6.70215H99.8672C100.005 6.36621 100.226 6.09928 100.528 5.90137C100.832 5.70345 101.209 5.60449 101.656 5.60449C102.071 5.60449 102.431 5.69303 102.739 5.87011C103.048 6.0472 103.288 6.30371 103.457 6.63965C103.629 6.97558 103.714 7.38314 103.711 7.8623V11.6826H102.297V8.08105C102.297 7.68001 102.193 7.36621 101.985 7.13965C101.779 6.91308 101.494 6.7998 101.129 6.7998C100.882 6.7998 100.662 6.85449 100.469 6.96387C100.279 7.07064 100.129 7.22558 100.02 7.42871C99.9128 7.63183 99.8594 7.87793 99.8594 8.16699ZM110.494 11.7998C109.908 11.7998 109.401 11.6709 108.971 11.4131C108.541 11.1553 108.208 10.7946 107.971 10.331C107.737 9.86751 107.619 9.32584 107.619 8.70605C107.619 8.08626 107.737 7.54329 107.971 7.07715C108.208 6.611 108.541 6.24902 108.971 5.99121C109.401 5.7334 109.908 5.60449 110.494 5.60449C111.08 5.60449 111.588 5.7334 112.018 5.99121C112.448 6.24902 112.78 6.611 113.014 7.07715C113.251 7.54329 113.369 8.08626 113.369 8.70605C113.369 9.32584 113.251 9.86751 113.014 10.331C112.78 10.7946 112.448 11.1553 112.018 11.4131C111.588 11.6709 111.08 11.7998 110.494 11.7998ZM110.502 10.667C110.82 10.667 111.086 10.5797 111.299 10.4053C111.513 10.2282 111.671 9.99121 111.776 9.69433C111.882 9.39746 111.936 9.06673 111.936 8.70215C111.936 8.33496 111.882 8.00293 111.776 7.70605C111.671 7.40657 111.513 7.16829 111.299 6.99121C111.086 6.81413 110.82 6.72558 110.502 6.72558C110.177 6.72558 109.906 6.81413 109.69 6.99121C109.476 7.16829 109.316 7.40657 109.209 7.70605C109.105 8.00293 109.053 8.33496 109.053 8.70215C109.053 9.06673 109.105 9.39746 109.209 9.69433C109.316 9.99121 109.476 10.2282 109.69 10.4053C109.906 10.5797 110.177 10.667 110.502 10.667ZM115.984 8.16699V11.6826H114.57V5.68261H115.921V6.70215H115.991C116.129 6.36621 116.35 6.09928 116.652 5.90137C116.956 5.70345 117.333 5.60449 117.781 5.60449C118.195 5.60449 118.555 5.69303 118.863 5.87011C119.172 6.0472 119.412 6.30371 119.581 6.63965C119.753 6.97558 119.838 7.38314 119.835 7.8623V11.6826H118.421V8.08105C118.421 7.68001 118.317 7.36621 118.109 7.13965C117.903 6.91308 117.618 6.7998 117.253 6.7998C117.006 6.7998 116.786 6.85449 116.593 6.96387C116.403 7.07064 116.253 7.22558 116.144 7.42871C116.037 7.63183 115.984 7.87793 115.984 8.16699Z" fill="#0D0D0D"/>
<path d="M42.2775 25.9151H36.8673L35.5681 29.7514H33.2764L38.401 15.5579H40.7818L45.9063 29.7514H43.5756L42.2775 25.9151ZM37.4276 24.1448H41.7161L39.602 17.9187H39.5428L37.4276 24.1448ZM56.9733 24.5779C56.9733 27.7936 55.2521 29.8597 52.6548 29.8597C51.9968 29.8941 51.3424 29.7425 50.7666 29.4224C50.1907 29.1022 49.7167 28.6263 49.3988 28.0492H49.3496V33.1748H47.2255V19.4032H49.2816V21.1244H49.3207C49.6533 20.5501 50.1353 20.0767 50.7155 19.7545C51.2957 19.4324 51.9524 19.2736 52.6157 19.295C55.242 19.295 56.9733 21.3712 56.9733 24.5779ZM54.79 24.5779C54.79 22.4829 53.7074 21.1055 52.0554 21.1055C50.4324 21.1055 49.3408 22.5118 49.3408 24.5778C49.3408 26.663 50.4324 28.0594 52.0554 28.0594C53.7074 28.0594 54.79 26.6921 54.79 24.5779ZM68.3629 24.5779C68.3629 27.7936 66.6418 29.8597 64.0444 29.8597C63.3864 29.8941 62.7321 29.7425 62.1563 29.4223C61.5804 29.1021 61.1064 28.6263 60.7885 28.0492H60.7393V33.1748H58.6152V19.4032H60.6712V21.1244H60.7103C61.0429 20.5501 61.5249 20.0767 62.1051 19.7545C62.6853 19.4324 63.342 19.2736 64.0053 19.295C66.6318 19.295 68.3629 21.3712 68.3629 24.5779ZM66.1797 24.5779C66.1797 22.4829 65.097 21.1055 63.445 21.1055C61.822 21.1055 60.7304 22.5118 60.7304 24.5778C60.7304 26.663 61.822 28.0594 63.445 28.0594C65.097 28.0594 66.1797 26.6921 66.1797 24.5779ZM75.8906 25.7968C76.048 27.2043 77.4154 28.1285 79.2838 28.1285C81.0742 28.1285 82.3623 27.2043 82.3623 25.9351C82.3623 24.8334 81.5854 24.1738 79.746 23.7217L77.9064 23.2786C75.3001 22.649 74.0902 21.4302 74.0902 19.4522C74.0902 17.0033 76.2244 15.3213 79.2548 15.3213C82.2539 15.3213 84.31 17.0033 84.3792 19.4522H82.235C82.1066 18.0359 80.9357 17.1808 79.2246 17.1808C77.5135 17.1808 76.3427 18.0459 76.3427 19.3049C76.3427 20.3084 77.0905 20.8989 78.9199 21.3508L80.4837 21.7349C83.3958 22.4235 84.6059 23.5934 84.6059 25.6694C84.6059 28.3249 82.4906 29.988 79.1264 29.988C75.9786 29.988 73.8535 28.3639 73.7162 25.7967L75.8906 25.7968ZM89.19 16.9544V19.4032H91.1579V21.0853H89.19V26.7902C89.19 27.6765 89.584 28.0894 90.4491 28.0894C90.6827 28.0853 90.916 28.0689 91.1478 28.0403V29.7125C90.7589 29.7851 90.3636 29.8179 89.9681 29.8105C87.873 29.8105 87.0558 29.0237 87.0558 27.0167V21.0853H85.5512V19.4032H87.0558V16.9544H89.19ZM92.2976 24.5779C92.2976 21.3219 94.2152 19.276 97.2055 19.276C100.206 19.276 102.115 21.3219 102.115 24.5779C102.115 27.8428 100.216 29.8798 97.2054 29.8798C94.1962 29.8798 92.2976 27.8428 92.2976 24.5779ZM99.9502 24.5779C99.9502 22.3444 98.9266 21.0261 97.2054 21.0261C95.4843 21.0261 94.4618 22.3544 94.4618 24.5779C94.4618 26.8204 95.4843 28.1285 97.2054 28.1285C98.9266 28.1285 99.9502 26.8204 99.9502 24.5779ZM103.866 19.4032H105.892V21.1645H105.941C106.078 20.6144 106.4 20.1283 106.854 19.7878C107.307 19.4473 107.864 19.2733 108.43 19.295C108.675 19.2941 108.919 19.3207 109.158 19.3742V21.361C108.849 21.2666 108.527 21.2232 108.204 21.2327C107.895 21.2201 107.587 21.2745 107.302 21.3921C107.016 21.5097 106.759 21.6877 106.549 21.9139C106.339 22.1401 106.18 22.4091 106.084 22.7025C105.987 22.9959 105.955 23.3066 105.99 23.6135V29.7514H103.866V19.4032ZM118.951 26.712C118.666 28.5906 116.836 29.8798 114.496 29.8798C111.485 29.8798 109.617 27.8629 109.617 24.627C109.617 21.3811 111.495 19.276 114.406 19.276C117.269 19.276 119.07 21.2427 119.07 24.3803V25.1081H111.761V25.2364C111.727 25.6173 111.775 26.0009 111.901 26.3619C112.027 26.7229 112.228 27.053 112.491 27.3302C112.754 27.6075 113.074 27.8255 113.428 27.9699C113.782 28.1143 114.162 28.1817 114.545 28.1676C115.047 28.2147 115.55 28.0984 115.981 27.8361C116.411 27.5739 116.746 27.1796 116.934 26.712H118.951ZM111.771 23.6236H116.944C116.963 23.2811 116.912 22.9384 116.792 22.617C116.672 22.2956 116.487 22.0024 116.249 21.7557C116.011 21.5091 115.724 21.3144 115.407 21.1839C115.09 21.0533 114.749 20.9897 114.406 20.9971C114.06 20.995 113.717 21.0615 113.397 21.1927C113.077 21.3238 112.786 21.5171 112.541 21.7612C112.296 22.0054 112.102 22.2957 111.97 22.6154C111.838 22.935 111.77 23.2776 111.771 23.6236Z" fill="#0D0D0D"/>
</svg>
